<svg id="Capa_1" data-name="Capa 1" xmlns="http://www.w3.org/2000/svg" width="43.3" height="62.6" viewBox="0 0 43.3 62.6" fill="currentColor" ><defs></defs><title>Mesa de trabajo 1</title><g id="Desktop-HD"><g id="DeskTopHD_00_header_-_fixat_-_go_up_-_cookies" data-name="DeskTopHD 00 header - fixat - go up - cookies"><g id="Mòdul_Header_Fixat" data-name="Mòdul/Header/Fixat"><g id="Logo_Núvol_Icon" data-name="Logo/Núvol/Icon"><path id="Logo" class="cls-1" d="M32.8,16.1h0a11.3,11.3,0,0,0,2.6,0c1-.1,2,0,3.1-.1a1.21,1.21,0,0,1,1.2.7,1.39,1.39,0,0,1-.1,1.4c-.1.3-.4.2-.6.1a1.39,1.39,0,0,0-.9,0c-.6.2-.6.7-.7,1.2-.1,1,0,2.1-.1,3.1a12.19,12.19,0,0,0,0,2.7,33.79,33.79,0,0,1,0,4.5v3.4c0,1.4.1,2.8.1,4.2v2.4A2.05,2.05,0,0,0,39,41.8c.1.1.3,0,.4-.1,1.2-1.1,1.7-.6,2.8-.1a.79.79,0,0,1,.5.8.27.27,0,0,0,.3.3c.4.1.5.3.5.7s-.1.5-.4.5a.76.76,0,0,0-.4.2,2.57,2.57,0,0,1-3.2.5c-.5-.3-1.1-.5-1.6-.8-.3-.1-.4,0-.4.3v1.6c-.1,1.2-.1,2.3-.2,3.5a12.36,12.36,0,0,1-1.5,4.7,3.81,3.81,0,0,1-.9,1.3c-.6.6-1.1,1.4-1.7,2a21.83,21.83,0,0,1-3.4,2.6,19.17,19.17,0,0,1-4.1,1.9,17.61,17.61,0,0,1-6.4.8,11.62,11.62,0,0,1-4.1-.9.9.9,0,0,0-.5-.1A4.69,4.69,0,0,1,12,61a19,19,0,0,1-3.4-2,23.91,23.91,0,0,1-2.3-2.2,39.18,39.18,0,0,1-2.5-3.2,3.08,3.08,0,0,1-.5-1.2,4.92,4.92,0,0,0-.6-1.7,7.85,7.85,0,0,1-.5-2.2,28.1,28.1,0,0,1-.1-2.9c0-1.7-.2-3.5-.1-5.2.1-2.3,0-4.6.1-7,.1-1.4,0-2.9.1-4.3s0-2.7.1-4,0-2.6.1-3.8c0-.4.1-.8.1-1.3a1.78,1.78,0,0,0-.4-1,3,3,0,0,0-1.3-.9,1,1,0,0,1-.7-.7,2.22,2.22,0,0,0-.1-.9c-.1-.2.1-.4.4-.4,1.2.1,2.5.1,3.7.1,2.5-.1,5,0,7.6-.1.7,0,.9.3.8,1,0,.2-.1.5-.1.7,0,.4-.2.5-.5.5a4.1,4.1,0,0,0-1.1.1c-.9.1-1.1.5-1.1,1.3V22c0,.4-.2.7-.1,1.1a4.84,4.84,0,0,1,0,1.7v1c0,.1.1.2.2.1a33.59,33.59,0,0,0,4.5-1.4,2.61,2.61,0,0,1,2.8.6,2.84,2.84,0,0,1,.4,1.2,10.46,10.46,0,0,1,.4,1.7c0,.3-.1.5-.4.5a2.92,2.92,0,0,0-.9.2.27.27,0,0,0-.3.3c0,.2.2.2.3.2s.4,0,.5.2a1.43,1.43,0,0,0,1.2.6c.2,0,.5.2.6,0s-.2-.3-.4-.4a1.6,1.6,0,0,1-.2-1.5.66.66,0,0,0-.1-.6,2.82,2.82,0,0,1-.4-1.5,13.4,13.4,0,0,1,.1-2,2.72,2.72,0,0,1,0-.9,1.27,1.27,0,0,1,1.1-.9,1.52,1.52,0,0,1,1.3,1,3.26,3.26,0,0,0-1.3-.4.6.6,0,0,0-.4.1c-.2.3-.4.7-.2,1s.1.8,0,1.2a.78.78,0,0,0,.2.8.54.54,0,0,0,.8-.2,2.73,2.73,0,0,1,1.2-.9,2,2,0,0,0-1.1-.6c-.1,0-.2-.1-.3-.1s-.1-.1-.1-.2.1-.1.2-.1c.5-.1.9.3,1.4.5,1.6.7,3.2,1.5,4.9,2.2a2,2,0,0,0,1.7.1.63.63,0,0,0,.5-.6c0-.3-.2-.4-.5-.5a17.42,17.42,0,0,1-2.2-.5,1.42,1.42,0,0,0-.6-.2c-.1,0-.2-.1-.3-.1a.37.37,0,0,1-.1-.3c0-.2-.1-.3-.3-.4a6.81,6.81,0,0,0-2.8-.7c-.1,0-.3,0-.3-.2s.2-.1.3-.1a5.58,5.58,0,0,1,2.2.3,8,8,0,0,1,1.6.8l.6.4a2.6,2.6,0,0,0,1.5.4,1.76,1.76,0,0,1,1.5.8,1.39,1.39,0,0,1,0,.9,1.16,1.16,0,0,1-.7.5,4.4,4.4,0,0,1-1.6-.2c-.1,0-.2-.1-.3,0s0,.2,0,.3a1.66,1.66,0,0,1,0,1.2c-.3.8-.4,1.7-.7,2.5-.1.1-.1.2-.2.3a.78.78,0,0,0-.1.8c.2.6.6.7,1.1.9a8.28,8.28,0,0,1,2.7,1.7c.3.4.9.5,1.2.9.1.1.2.1.2.2a3.23,3.23,0,0,0,1.4,1.2.44.44,0,0,0,.5.1,2.88,2.88,0,0,1,2,.7c.1.1.1.3.3.2a.4.4,0,0,0,.2-.4,1.7,1.7,0,0,0-.1-.7,2.44,2.44,0,0,1,0-1.2v-.1c0-3.6.1-7.3.1-10.9,0-.6.1-1.2.1-1.8a19.83,19.83,0,0,0-.3-3.5,1,1,0,0,0-.6-.9,1.39,1.39,0,0,0-1.1-.2c-.4.1-.6,0-.6-.4s-.1-.7-.2-1a.53.53,0,0,1,.6-.6h.4ZM21.9,55.3a.37.37,0,0,0-.2.5,3.89,3.89,0,0,1,.2,1.5c0,.4.2.6.6.5a3,3,0,0,1,1-.2,2.77,2.77,0,0,0,.9-.1l.3-.1c.1,0,.4-.1.2-.3-.5-.5-.8-1-1.6-1.2a1.93,1.93,0,0,1-.9-.5C22.2,55.3,22.1,55.2,21.9,55.3Zm3-8.6a5,5,0,0,1-1.7,1.1c-.1,0-.2.1-.1.2a2.46,2.46,0,0,1,.1,1.2,1.94,1.94,0,0,1-.9,1.4v-.1a9.26,9.26,0,0,0,.4-2.3c0-.2-.1-.3-.3-.2-.4.1-.9.2-1.4.3a6,6,0,0,1-2.3.1,1.7,1.7,0,0,0-1.4,0,2.77,2.77,0,0,1-.9.1c-.4,0-.5,0-.5.4a5,5,0,0,0,.2,1.2,1.5,1.5,0,0,1-.1,1.3.22.22,0,0,1-.2.2.37.37,0,0,1-.3-.1.21.21,0,0,1,0-.4.62.62,0,0,0,.2-.7,6.47,6.47,0,0,1-.4-2c-.1-.3-.3-.5-.6-.4s-.2.3-.2.5a5.64,5.64,0,0,0,.4,1.2,2.15,2.15,0,0,1-.2,1.9.45.45,0,0,0,0,.5.55.55,0,0,0,.5.3c.5.1.5.3.4.8a.6.6,0,0,0-.1.4c0,.2-.1.4.3.4a.37.37,0,0,1,.4.4,1.27,1.27,0,0,0,.1.6,4.87,4.87,0,0,1,.4,1.1,1.14,1.14,0,0,0,.7.8,11.43,11.43,0,0,0,3.2.7c.8.1,1-.1.8-.9-.1-.3-.1-.6-.2-1a4.19,4.19,0,0,0-.4-1.5c-.1-.1-.2-.3,0-.4s.3.1.4.2a1.61,1.61,0,0,0,.4.7,2.25,2.25,0,0,0-.1-2.1c-.1-.3,0-.5.2-.5a2.12,2.12,0,0,0,1.3-1,.1.1,0,0,1,.1-.1h.1c.1,0,0,.1,0,.1a.81.81,0,0,1-.4.9c-.3.2-.6.2-.8.5a2,2,0,0,0,2.3,0,.19.19,0,0,1,.3,0,.35.35,0,0,1,.1.2c0,.1,0,.1-.1.2a2.09,2.09,0,0,1-.6.4,1.7,1.7,0,0,1-1,0c-.1,0-.3-.1-.3,0s.1.2.2.2.3.1.4.2.2.1.2.3a.37.37,0,0,1-.3.1,1.42,1.42,0,0,0-.6-.2.92.92,0,0,0,.6.4,11.21,11.21,0,0,1,1.3.5c.1,0,.2,0,.2.2s-.2.1-.3.1a1.27,1.27,0,0,1-.6-.1,2.93,2.93,0,0,0-1-.3c0,.1.2.2.1.4s-.1.2.1.3a3.55,3.55,0,0,1,.9.4,3,3,0,0,1,1.3.9,1.25,1.25,0,0,0,1.7.4c.4-.2.9-.4,1.3-.6a8.64,8.64,0,0,0,1.6-1l.4-.3c.1,0,.1-.1.1-.2v-.2a3.55,3.55,0,0,1-.4-.9,1.76,1.76,0,0,0-.9-1.5c-.1-.1-.2-.1-.2-.2l-.9-1.5c-.1-.1-.2-.3-.4-.3-.4,0-.5-.2-.6-.7a2.77,2.77,0,0,0-.1-.9,4.35,4.35,0,0,0-1-1.6l-.4-.4C25.1,46.5,25,46.6,24.9,46.7ZM9.7,34.2c0,.4-.1.8-.1,1.1,0,1.7,0,3.3-.1,5,0,.4.1.8.1,1.1a9.7,9.7,0,0,0,.1,1.7,4.87,4.87,0,0,0,.1,1.2c.2,1.2.3,2.3.5,3.5a11.81,11.81,0,0,0,1.9,4.8,8.48,8.48,0,0,0,2.4,2.6,7.1,7.1,0,0,0,1.4,1c.1,0,.2.1.3,0a.14.14,0,0,0,0-.2,1.28,1.28,0,0,1-.4-1c0-.2,0-.4-.2-.5-.5-.2-.6-.3-.4-.9-.2-.6-.2-.6-.8-1.1a.22.22,0,0,1-.2-.2.91.91,0,0,1,0-1,2.29,2.29,0,0,0,.2-1.8c-.1-.4-.3-.7-.2-1.1a1.23,1.23,0,0,0-.2-1,6.28,6.28,0,0,1-1.2-3.2,1.29,1.29,0,0,1,.4-1.2c.1-.1.3-.2.4-.3a.78.78,0,0,0,.3-1,7.37,7.37,0,0,1-.4-1.4,16.28,16.28,0,0,1-.3-3.1c0-.7-.1-1.4-.1-2,0-.2-.1-.2-.2-.2a2.39,2.39,0,0,1-1.4-.5c-.1-.1-.2-.2-.4-.1a.75.75,0,0,1-.8-.1.76.76,0,0,0-.4-.2C9.8,34,9.7,34,9.7,34.2Zm9,19.7c.5.2.6.4.3.8a.9.9,0,0,0-.1.5c-.1.1-.1.2-.2.2a.22.22,0,0,1-.2-.2.35.35,0,0,0-.1-.2c-.5.2-.7-.4-1.1-.4-.1,0-.2-.1-.2-.3a1.27,1.27,0,0,1,.1-.6c0-.1.2,0,.2.1a1.38,1.38,0,0,1,.3.4c.1-.5.3-.5.5-.2a.52.52,0,0,1,.2.4c.1-.1.2-.2.1-.4S18.5,53.8,18.7,53.9Zm7.2-13.8a2.17,2.17,0,0,0-1.1,1,.3.3,0,0,0,0,.4,2.07,2.07,0,0,1,.6,1,4.87,4.87,0,0,0,.4,1.1.64.64,0,0,1,0,.6,4.43,4.43,0,0,0-.3,1.5,1.37,1.37,0,0,0,.4,1.2,3.59,3.59,0,0,1,.7,1c.2.3.1.7.2,1,.2.5.2,1.1.9,1.2.3.1.4.4.5.7a1.61,1.61,0,0,0,.4.7,5.13,5.13,0,0,1,1.5,2.3c.1.5.5.5.8.1a10.71,10.71,0,0,0,1.5-2.2,13.58,13.58,0,0,0,1.5-5.9,13.55,13.55,0,0,1,.2-2,.64.64,0,0,0,0-.6c-.1-.5-.6-.7-1-.9s-.5.1-.7.2a1.47,1.47,0,0,1-1.1.2l-1.5-.6a.67.67,0,0,1-.4-.7.55.55,0,0,0-.3-.5,8.18,8.18,0,0,1-1.9-.9A2,2,0,0,0,25.9,40.1ZM18.7,50.4h0c.7.2,1.3.4,1.9.6.3.1.7,0,1,.1.1,0,.3-.1.3.1s-.1.3-.2.3a.37.37,0,0,1-.3.1,6.81,6.81,0,0,1-2.8-.7.1.1,0,0,1-.1-.1v-.2a.22.22,0,0,1,.2-.2Zm4-7.8h0a3.59,3.59,0,0,0-1.1.2l-2.7.6a6.59,6.59,0,0,1-3.4.5h-.8a1.39,1.39,0,0,1-1.1-.2c-.3-.2-.3-.1-.3.2a1.2,1.2,0,0,0,.9,1.2c.2.1.5,0,.4.3s-.3.1-.5,0-.3-.1-.4.1,0,.2.1.2h.1a.22.22,0,0,1,.2.2.1.1,0,0,1-.1.1c-.1,0-.2,0-.2.1a.22.22,0,0,0,.2.2,4.66,4.66,0,0,0,2,.6,4.92,4.92,0,0,0,2.9-.6.3.3,0,0,1,.4,0c.1.2-.1.2-.2.3a4.68,4.68,0,0,1-2.6.5,2.66,2.66,0,0,0-1.2.3,3.8,3.8,0,0,0,2.1.2,1.41,1.41,0,0,1,.9-.1,3.38,3.38,0,0,0,2,.2c-.5-.2-1-.1-1.5-.4l.1-.1c1.4-.6,2.7-1.2,4.1-1.8.1,0,.2-.1.2,0s0,.2-.1.3c-.5.3-1.1.6-1.7.9l-1.2.6a6.83,6.83,0,0,0,3.8-.7l.1-.1c.4,0,.5-.3.6-.6-.5,0-.8.6-1.3.3l.3-.3c.2-.1.5-.2.7-.3s.4-.1.3-.4-.3-.2-.5-.3H24l-1.1.3h0a.66.66,0,0,1-.6-.1.1.1,0,0,1,.1-.1,8.3,8.3,0,0,1,2.1-.6A.55.55,0,0,0,25,44c.2-.3,0-1.2-.3-1.3a4.19,4.19,0,0,0-1.6-.4h-.3Zm11.5-3.4c-.1.1,0,.2,0,.3v.6a4.92,4.92,0,0,1-.6,1.7c-.1.1-.1.2.1.3a4.23,4.23,0,0,0,2.7.7c0-.8-.8-1-1.3-1.5.2-.1.4,0,.5,0a1.66,1.66,0,0,1,1.4,1c.1.2.2.4.1.5s-.3,0-.5,0h-.1c0,.2.1.2.2.2,1.2.5,2.4,1,3.6,1.4a.9.9,0,0,0,.5.1H41c.8-.1,1.1-.7,1.8-1.2a.66.66,0,0,0-.6.1c-.1.1-.2,0-.3-.1s0-.1,0-.2a1.1,1.1,0,0,0,0-.8,1.28,1.28,0,0,0-.7-.5,1.88,1.88,0,0,1-.8-.2c-.4.1-.4.4-.6.5s-.1.4.1.5l.2.2c.1.1.2.2.1.4s-.1.1-.2.1-.2,0-.2-.1a1.38,1.38,0,0,0-.4-.3,15.6,15.6,0,0,1-2.8-2.3,9,9,0,0,0-2-1.4C34.4,39.2,34.3,39.1,34.2,39.2ZM21.7,41.8a17.68,17.68,0,0,0-3.1.8,21.76,21.76,0,0,0-2.7,1.1c.2.1.3,0,.5,0a7.53,7.53,0,0,0,2.9-.6,19.81,19.81,0,0,1,3.3-.8,2.75,2.75,0,0,1,2,.2c.1.1.1,0,.2,0h0c.1-.1.1-.1,0-.2a.68.68,0,0,0-.6-.4A4.24,4.24,0,0,0,21.7,41.8Zm-7.9,1.5h0l-.1.1a.52.52,0,0,0,.4.2A.27.27,0,0,0,13.8,43.3Zm-2.5-14a.37.37,0,0,0-.1.3,5,5,0,0,1,.2,1.2,15.52,15.52,0,0,1-.4,2.1.68.68,0,0,1-.4.6c-.1,0-.3.1-.4,0s.1-.2.2-.3.1-.1.2-.2.2-.2.1-.3-.2,0-.3,0a.64.64,0,0,1-.6,0,.78.78,0,0,1-.4-.4.1.1,0,0,0-.1-.1.35.35,0,0,0-.2-.1H8.9c-.1,0-.1.1-.1.2v.1h0c0,.1.1.2.2.3a3.81,3.81,0,0,0,1.3.9c.5.2,1,.3,1.3-.3a.37.37,0,0,1,.3-.1c.1,0,0,.2.1.2s-.2.2,0,.2.2-.1.2-.2c.1-.3.3-.7.4-1a.1.1,0,0,1,.1-.1h.2a.1.1,0,0,1,.1.1v.1a3.29,3.29,0,0,1-.7,1.3c-.1.1-.2.2-.2.3s.2.2.3.2h.3a1.55,1.55,0,0,1,1.5.9c.1.3.3.5.7.3.2-.1.2,0,.2.2s-.6.4-.9.2a2.65,2.65,0,0,1-.5-.6v3.9a2.77,2.77,0,0,0,.1.9,15.87,15.87,0,0,0,.7,2c.1.3.2.7-.2.9.2.2.3.5.7.3,0-.1-.2-.2-.1-.3s.2,0,.3,0a2.44,2.44,0,0,0,1.2,0,10.41,10.41,0,0,0,1.6-.6c.6-.2.8-.5.7-1.1-.1-.4.1-.6.3-.9a2.54,2.54,0,0,1,.2,1.2c0,.2.1.3.3.2,1.1-.2,2.2-.4,3.2-.6a.52.52,0,0,0,.4-.2.3.3,0,0,0,0-.4.62.62,0,0,1,.1-.7c.2-.3.4-.5.6-.8s.7-.8.6-1.4c0-.2.1-.2.3-.2s.2.2.2.3a3.58,3.58,0,0,1-.4,1.1,6.71,6.71,0,0,0-.9,1.4.87.87,0,0,0,.4.9.67.67,0,0,0,.8-.3,2.62,2.62,0,0,0,.5-.9.35.35,0,0,1,.1-.2c.1,0,.2-.1.3,0s.4-.1.5-.3l.3-.6a2,2,0,0,1,.8-1.2.35.35,0,0,1,.2-.1c.1,0,.1,0,.2.1a.19.19,0,0,1,0,.3l-.3.3c-.2.1-.4.2-.3.4s.4.1.6.1.2-.1.3-.1a2.36,2.36,0,0,0,.9-.8c.1-.1.2-.2.3-.1l.1.1v.2l-.3.3a1.72,1.72,0,0,1-1.6.8c-.2,0-.3,0-.3.2s.1.2.3.2a7.72,7.72,0,0,0,1.5-.2c.1,0,.3-.1.3.1s-.1.1-.2.2-.3.1-.3.2h.5c.2-.1.4,0,.6.2s0,.2-.1.3,0,.1.1.2.3.2.5,0a.47.47,0,0,1,.6-.1,1,1,0,0,0,1.2-.1.35.35,0,0,1,.2-.1c.1,0,.1,0,.2.1a.14.14,0,0,1,0,.2c0,.1,0,.1-.1.2s-.2.1-.3.2c-.3.1-.6.3-.9.4,1,.1,1.5-.3,1.6-.9a5.44,5.44,0,0,0,0-1.8A.77.77,0,0,0,32,38a1.15,1.15,0,0,1-.9-.6c-.1-.2-.3-.4-.5-.3h-.3c-.1-.1-.1-.1-.1-.2s-.1-.4-.2-.5a.49.49,0,0,0-.6-.3c-.3.1-.4,0-.5-.2a1.42,1.42,0,0,0-.2-.6A4.71,4.71,0,0,0,27.2,34a3.58,3.58,0,0,0-1.1-.4c.1.1.1.3.2.4s0,.2-.1.2-.2,0-.2-.1a2.18,2.18,0,0,1-.4-.5c-.1-.1-.1-.3-.3-.3s-.2.3-.2.4a.32.32,0,0,1-.3.3.6.6,0,0,1-.4-.1c-.3-.2-.4-.2-.5.1v.5a1.14,1.14,0,0,1-.3.8c-.3-.5-.1-.9,0-1.4a1.64,1.64,0,0,0-.8,1.2,3.72,3.72,0,0,0,.2,1.8,3.71,3.71,0,0,1-.6,3.1c0,.1-.1.1-.2.2H22c-.2-.1-.1-.2-.1-.3a22.11,22.11,0,0,0,.5-2.5c.1-.8,0-1.5.1-2.3a4.4,4.4,0,0,0-.2-1.6,1.28,1.28,0,0,1,0-1.2c.4.3.2.8.5,1.1a7.27,7.27,0,0,0,.8-.9c.2-.2.1-.3-.1-.3a1,1,0,0,1-.7-.4,4.35,4.35,0,0,1-.6-.7c-.1-.1-.3-.2-.4,0s-.4.2-.5-.1-.2-.3-.4-.3-.1,0-.2-.1l-.2-.1c-.2-.1-.4-.4-.7-.3.1.5.5.7.8,1a.73.73,0,0,0,.6.2c.1,0,.2-.1.2,0s0,.2-.1.2-.3.2-.5.3-.3.1-.4-.1a7.89,7.89,0,0,0-1.2-1.5c-.1-.1-.3-.1-.2.1s-.1.2-.2.1-.3-.1-.4-.2c-.4-.3-.7-.7-1.2-.8a1.5,1.5,0,0,0-1.3.1,1.14,1.14,0,0,1-.8.3l.3.6c0,.1.1.2,0,.3s-.2,0-.3-.1a1,1,0,0,1-.4-.5.57.57,0,0,0-.7-.4c-.2,0-.3.1-.2.3s0,.6.2.9c.1.1,0,.3-.1.4s-.1.1-.2.1-.1-.1-.1-.2a1.49,1.49,0,0,0-.2-.9c-.2-.7-.3-1.4-1.2-1.6A4.54,4.54,0,0,1,11.3,29.3Zm7.8,7.3c.2.1.1.2.1.3-.4,1.2-.8,2.3-1.3,3.5a4,4,0,0,0-.3,1.5c0,.2.2.5-.2.5-.2,0-.4-.3-.4-.6a10.93,10.93,0,0,1,.5-1.7l1.2-3.3c0-.1,0-.1.1-.2s.1-.1.2-.2C19,36.6,19,36.6,19.1,36.6Zm14.3,1.7c-.1.5-.1,1-.2,1.4s-.2.7-.3,1.1l-.1.3a.55.55,0,0,1-.5.3c-.5.1-1,.4-1.6.5a2,2,0,0,0,1.4.3,1.91,1.91,0,0,0,1.5-1.6,7.72,7.72,0,0,0,.2-1.5A.91.91,0,0,0,33.4,38.3Zm-.9-.5h0a.19.19,0,0,0,0,.3,11,11,0,0,1,.2,1.8.86.86,0,0,0,.3-.6c0-.5.1-.9-.2-1.3l-.1-.1-.2-.1Zm-8.8-5.6c-.5.3-.6.9-1.2,1.3a2,2,0,0,1,1.1,0c.2,0,.3,0,.4-.1.3-.3.2-.6.2-.9a.6.6,0,0,0-.1-.4C24,32,23.8,32.1,23.7,32.2Zm-9.8-7a18.29,18.29,0,0,1-2.5.8c-.6.2-1.3.2-1.9.4a4.74,4.74,0,0,0-3,2.7c-.1.3-.5.5-.4.8s.4.4.6.6l.1.1h0a3.68,3.68,0,0,0,1.9,1.1,2.38,2.38,0,0,1,1.1.6c.1.1.2.2.3.1a2.18,2.18,0,0,0,.5-.4,3,3,0,0,0,.4-1.8c0-.1,0-.3-.1-.3s-.2.1-.3.1a1.79,1.79,0,0,1-.7.5c-.1,0-.2.1-.2,0v-.2c.1-.1.1-.2.2-.2.3,0,.3-.2.5-.4A5.51,5.51,0,0,1,12.1,28a7.14,7.14,0,0,0,1.5-.8.19.19,0,0,1,.3,0c-.1.2-.2.3-.4.3a3.77,3.77,0,0,0-1.5.9c-.3.2-.2.4,0,.6a2.57,2.57,0,0,0,2.5.5.35.35,0,0,0,.2-.1.91.91,0,0,0-.3-1A.78.78,0,0,1,14,28a2.77,2.77,0,0,1-.1-.9.52.52,0,0,1,.2-.4,12.09,12.09,0,0,1,1.8-.5c-.5.6-.8,1.1-.5,1.8a.78.78,0,0,1-.1.8.14.14,0,0,0,0,.2h.1a.1.1,0,0,0,.1-.1,1.49,1.49,0,0,0,.3-.7.9.9,0,0,1,.1-.5c.1-.1.1-.1.2-.1a.37.37,0,0,1,.3.1c.2.1,0,.3-.1.4a.35.35,0,0,1-.1.2c.1.1-.1.2.1.3a.89.89,0,0,0,.8-.5v-.6c-.2-.5-.3-.9-.5-1.4a1.57,1.57,0,0,0-1.1-1A3,3,0,0,0,13.9,25.2Zm7.8.6a1.94,1.94,0,0,0-1.4.9,2.32,2.32,0,0,0-.3,1.6c.1.5,0,.6-.4.7.1.3.8.3.3.7-.3.3-.4-.2-.6-.2,0,.2-.1.5.1.5s.5.4.8.1c.1-.1.1,0,.2.1s0,.3-.1.4v.2c0,.1.1.1.2.1a.22.22,0,0,0,.2-.2.37.37,0,0,1,.1-.3c.1-.1.2-.1.2,0s0,.3.1.3.1-.2.1-.4a.1.1,0,0,1,.1-.1c0-.1.1-.2.3-.2s.1.1.1.2V31a1.13,1.13,0,0,0,1.6.9.52.52,0,0,1,.4-.2,2.34,2.34,0,0,0,1-1.2,17.42,17.42,0,0,0,.5-2.2,1.28,1.28,0,0,0-.5-1.5c-.1-.1-.2-.1-.3-.2A3.26,3.26,0,0,0,21.7,25.8Zm2,1.8a1,1,0,0,1,1.1,1.1,2.46,2.46,0,0,1-.9,1.9.91.91,0,0,1-1,0,1,1,0,0,1-.4-.5.66.66,0,0,1,.1-.6,1.93,1.93,0,0,0,.3-1C22.8,27.9,23,27.6,23.7,27.6Zm-.4,2.1a.25.25,0,0,0-.4.1V30c0,.1.1.1.2.2.3.2.6.1.9-.4C23.7,29.8,23.5,29.9,23.3,29.7Zm-2.8-4.5a3.49,3.49,0,0,0-1.8,3c0,.5,0,.5.1.7V29a3.1,3.1,0,0,0,.6-1.3,2.89,2.89,0,0,1,1.3-1.9c.3-.2.6-.2.9-.4A.91.91,0,0,0,20.5,25.2Zm3.8,3.3c-.3-.3-.4-.6-.8-.3h0a.1.1,0,0,0,0,.2A2.2,2.2,0,0,1,24.3,28.5Zm-2.2-2.3c-.4.4-.6.9-1.2,1.1C21.1,26.5,21.3,26,22.1,26.2ZM29.3,0l.8.3a1.51,1.51,0,0,1,.7,1.9,5.58,5.58,0,0,1-1.4,2c-.9,1-1.9,1.9-2.8,2.9S25,8.8,24.1,9.7s-1.8,1.9-2.7,2.8a1.7,1.7,0,0,1-.6.6.85.85,0,0,1-.7,0c0,.1-.1,0-.1-.1v-.2c1.1-2.1,2.1-4.2,3.2-6.4l2.1-4.2A3.57,3.57,0,0,1,27.2.1l.3-.1h1.8Z"/></g></g></g></g></svg>
